<svg width="24" height="24" viewBox="0 0 24 24" fill="none" xmlns="http://www.w3.org/2000/svg">
<g clip-path="url(#clip0_972_26689)">
<path d="M10.4765 0.0613542C8.31087 0.342713 6.32806 1.17272 4.59368 2.51387C4.04525 2.9406 3.11243 3.8597 2.65775 4.42242C1.364 6.02617 0.506185 7.92065 0.14056 9.98395C0.0093099 10.7155 -0.0422526 12.474 0.0421224 13.2759C0.243685 15.1469 0.895247 16.9804 1.90775 18.5373C2.36712 19.2407 2.77025 19.7424 3.39837 20.3849C5.36243 22.4013 7.84212 23.6205 10.664 23.9487C11.2921 24.0238 12.8202 24.0097 13.4999 23.93C17.0062 23.4939 20.1374 21.5291 22.0921 18.5373C23.0765 17.032 23.7046 15.3016 23.9296 13.4963C24.0234 12.7366 24.0234 11.2594 23.9296 10.4951C23.4984 7.01561 21.539 3.87377 18.5859 1.93239C17.0437 0.919501 15.3281 0.291131 13.4999 0.0613542C12.7874 -0.0230535 11.1515 -0.0230535 10.4765 0.0613542Z" fill="#FF5F5F"/>
<path d="M16.5299 6.4606L15.4668 6.44191M16.5299 6.4606L16.5433 6.46084C17.5791 6.4793 17.6006 6.47968 17.7333 6.56902C17.8912 6.67369 17.9965 6.89425 18 7.12229M16.5299 6.4606L16.5281 6.56059M16.5299 6.4606L16.5281 6.56059L16.5281 6.56059M15.4668 6.44191L18 7.12229M15.4668 6.44191L15.1229 5.7578L15.4668 6.44191ZM18 7.12229L17.9 7.12382C17.9 7.12356 17.9 7.12329 17.9 7.12303C17.9 7.12278 17.9 7.12253 17.9 7.12229H18ZM16.5281 6.56059L15.465 6.5419L15.4046 6.54084L15.3774 6.48682L15.0336 5.80281C14.8418 5.4222 14.731 5.20921 14.6333 5.05533C14.5377 4.90485 14.4545 4.81056 14.3149 4.66918L14.3147 4.66894C14.2011 4.55306 14.0268 4.42966 13.8398 4.32846C13.6525 4.22707 13.462 4.15318 13.3177 4.12945C13.2597 4.12046 13.0917 4.11274 12.8586 4.10755C12.6288 4.10243 12.344 4.09986 12.0599 4.09986C11.7757 4.09986 11.4928 4.10243 11.2665 4.10755C11.0368 4.11274 10.8758 4.12047 10.8254 4.12907C10.6065 4.1716 10.3686 4.26416 10.1568 4.38947C10.047 4.45571 9.8964 4.58656 9.75823 4.73148C9.61907 4.87744 9.50469 5.02492 9.45912 5.12028C9.41349 5.21726 9.19915 5.57443 8.99404 5.90409L8.99383 5.90442L8.61139 6.51376L8.58199 6.5606H8.52669H7.50568C7.03947 6.5606 6.78618 6.56252 6.63437 6.57209C6.48705 6.58137 6.44806 6.59718 6.40581 6.61966C6.15274 6.75794 6.03844 7.05096 6.1331 7.31256L6.13313 7.31255L6.13388 7.3148C6.1531 7.37213 6.21012 7.45447 6.2859 7.5308C6.36029 7.60572 6.43446 7.65646 6.48033 7.67168L16.5281 6.56059ZM12.0712 5.17556C12.6149 5.17929 12.9058 5.18207 13.0769 5.19403C13.1629 5.20004 13.2244 5.20869 13.2751 5.2229C13.3279 5.23769 13.3649 5.25737 13.4013 5.2788C13.5036 5.33737 13.5778 5.39189 13.6605 5.49756C13.7389 5.59776 13.8251 5.74407 13.9576 5.98178C13.9576 5.98186 13.9576 5.98194 13.9577 5.98202L14.189 6.39284L14.272 6.5401L14.103 6.54191L13.0539 6.55312L13.0535 6.55313C12.4741 6.55687 11.5264 6.55687 10.9505 6.55313L10.9501 6.55312L9.8975 6.54191L9.72555 6.54008L9.81218 6.39154L10.0364 6.00714C10.0364 6.00704 10.0365 6.00693 10.0365 6.00682C10.2775 5.58634 10.3427 5.49001 10.5154 5.36026C10.5719 5.31732 10.6257 5.27908 10.6939 5.24987C10.7625 5.22052 10.84 5.20251 10.9437 5.19111C11.1468 5.1688 11.4728 5.16999 12.0712 5.17556ZM12.0712 5.17556C12.0711 5.17556 12.0711 5.17556 12.0711 5.17556L12.0704 5.27556L12.0713 5.17556C12.0713 5.17556 12.0712 5.17556 12.0712 5.17556Z" fill="white" stroke="#FF5F5F" stroke-width="0.2"/>
<path d="M7.50314 11.998L7.50314 11.9986C7.51367 14.9558 7.51727 15.1603 7.60676 16.4145L7.60677 16.4146C7.66038 17.1686 7.7217 17.8858 7.74445 18.0313L7.74447 18.0313L7.7452 18.0362C7.84084 18.6798 8.31056 19.1751 8.88137 19.2982L8.88137 19.2982L8.88323 19.2986C8.87559 19.297 8.88109 19.2974 8.90411 19.299C8.93918 19.3016 9.01493 19.307 9.14681 19.3126C9.3336 19.3204 9.58415 19.3272 9.87983 19.3327C10.4703 19.3437 11.2277 19.3495 11.9876 19.35C12.7474 19.3504 13.5061 19.3455 14.0992 19.3352C14.3962 19.3301 14.6485 19.3236 14.8373 19.3159C14.984 19.31 15.0643 19.304 15.0971 19.3016C15.113 19.3004 15.1178 19.3001 15.1136 19.3009L15.1185 19.2999C15.5196 19.2198 15.9301 18.8977 16.1258 18.476C16.242 18.2235 16.2743 18.1455 16.4077 16.1373L16.4077 16.1372C16.5361 14.2067 16.5605 13.1218 16.5256 10.7206L16.5256 10.72L16.5097 9.54065H11.9933H7.49205L7.50314 11.998Z" stroke="white" stroke-width="1.3"/>
</g>
<defs>
<clipPath id="clip0_972_26689">
<rect width="24" height="24" fill="white"/>
</clipPath>
</defs>
</svg>
