<svg width="24" height="24" viewBox="0 0 24 24" fill="none" xmlns="http://www.w3.org/2000/svg">
<g id="delete 1 (traced)" clip-path="url(#clip0_1075_11469)">
<path id="Vector" d="M10.4765 0.0613537C8.31087 0.342712 6.32806 1.17272 4.59368 2.51387C4.04525 2.9406 3.11243 3.8597 2.65775 4.42242C1.364 6.02617 0.506185 7.92065 0.14056 9.98395C0.0093099 10.7155 -0.0422526 12.474 0.0421224 13.2759C0.243685 15.1469 0.895247 16.9804 1.90775 18.5373C2.36712 19.2407 2.77025 19.7424 3.39837 20.3849C5.36243 22.4013 7.84212 23.6205 10.664 23.9487C11.2921 24.0238 12.8202 24.0097 13.4999 23.93C17.0062 23.4939 20.1374 21.5291 22.0921 18.5373C23.0765 17.032 23.7046 15.3016 23.9296 13.4963C24.0234 12.7366 24.0234 11.2594 23.9296 10.4951C23.4984 7.01562 21.539 3.87377 18.5859 1.93239C17.0437 0.9195 15.3281 0.29113 13.4999 0.0613537C12.7874 -0.0230541 11.1515 -0.0230541 10.4765 0.0613537Z" fill="#459BFF"/>
<g id="Group 30819">
<g id="Blue">
<path id="Vector_2" d="M10.0888 7.04875C9.36457 7.1425 8.71061 7.5433 8.28166 8.1574C8.08712 8.43866 7.9371 8.80665 7.8785 9.14651C7.86913 9.20276 7.86444 9.42543 7.86444 9.64575C7.86678 9.99968 7.87382 10.0653 7.92773 10.2434C8.04961 10.6442 8.14103 10.8341 8.35667 11.1247C8.48559 11.2982 8.80905 11.6146 8.89812 11.6568C8.92859 11.6709 8.95203 11.6896 8.95203 11.7013C8.95203 11.7107 8.96141 11.7201 8.97547 11.7201C8.98719 11.7201 9.05282 11.7552 9.1208 11.7998C9.27081 11.8935 9.61068 12.0318 9.83101 12.0881C10.0678 12.1467 10.7264 12.1443 10.9561 12.0857C11.1928 12.0248 11.296 11.9896 11.4765 11.9052C12.1328 11.5982 12.6578 10.963 12.8594 10.2317C12.918 10.0161 12.925 9.96452 12.9227 9.58716C12.9227 9.21917 12.9156 9.15354 12.8617 8.94962C12.7399 8.4996 12.5101 8.10817 12.1703 7.76597C11.8187 7.41439 11.4249 7.19875 10.9327 7.08859C10.778 7.05343 10.2435 7.02765 10.0888 7.04875Z" fill="#F9F6FF"/>
<path id="Vector_3" d="M8.57719 12.954C7.74275 13.0501 7.0255 13.4626 6.52624 14.1377C6.30591 14.433 6.11136 14.8994 6.03635 15.3073C5.98947 15.5627 5.98713 15.9589 6.03401 16.1135C6.16527 16.5565 6.52624 16.88 6.96221 16.948C7.05831 16.962 8.34046 16.9691 10.4758 16.9644C13.6612 16.9573 13.8464 16.955 13.9683 16.9152C14.3691 16.7816 14.6457 16.4933 14.7558 16.0901C14.8191 15.8604 14.784 15.3635 14.6785 15.0026C14.4207 14.1095 13.6987 13.3736 12.808 13.0923C12.3767 12.954 12.3744 12.954 10.4406 12.9493C9.46086 12.947 8.62173 12.947 8.57719 12.954Z" fill="#F9F6FF"/>
</g>
<g id="Silver">
<path id="Vector_4" d="M13.6227 7.02918C13.2761 7.09596 12.9635 7.22261 12.6803 7.41374L12.5037 7.53349L12.6067 7.75083C13.0257 8.19296 13.25 8.67194 13.3157 9.27066C13.3768 9.82102 13.3281 10.4566 13.011 10.9356C12.9589 11.0162 12.9193 11.165 12.8083 11.2801L12.6067 11.4896L12.7675 11.5979C12.9872 11.7476 13.2726 11.8811 13.5331 11.9525C13.728 12.0055 13.6884 12.0009 14.0304 12.0009C14.4699 12.0032 14.6375 11.9732 14.9818 11.8328C15.3012 11.7015 15.5164 11.5541 15.7882 11.2801C16.1325 10.9301 16.3183 10.6008 16.4474 10.1264C16.4927 9.9537 16.4995 9.8777 16.4995 9.50466C16.4995 9.11088 16.4949 9.06252 16.436 8.85297C16.1959 7.97331 15.5254 7.30091 14.6601 7.07293C14.377 6.99694 13.899 6.97852 13.6227 7.02918Z" fill="#F9F6FF"/>
<path id="Vector_5" d="M13.1906 12.9984C13.4505 13.0369 13.5852 13.1444 13.7881 13.2447C14.3228 13.5153 14.7529 14.0811 14.9905 14.6898C15.1544 15.1143 15.2425 15.688 15.1934 16.0168C15.1258 16.4809 14.8185 16.8634 14.4292 16.9707C14.3411 16.994 14.5603 16.9986 15.726 17.001C16.988 17.001 17.1437 16.9963 17.2646 16.9613C17.4387 16.9077 17.6108 16.7888 17.7378 16.6325C17.9263 16.397 18 16.1637 18 15.7883C18 14.6478 17.3322 13.5727 16.3795 13.1763C15.9637 13.0013 16.0928 13.0068 14.4293 12.9998C13.448 12.9975 13.0963 12.9844 13.1906 12.9984Z" fill="#F9F6FF"/>
</g>
</g>
</g>
<defs>
<clipPath id="clip0_1075_11469">
<rect width="24" height="24" fill="white"/>
</clipPath>
</defs>
</svg>
