<svg width="24" height="24" viewBox="0 0 24 24" fill="none" xmlns="http://www.w3.org/2000/svg">
<mask id="path-1-inside-1_972_29019" fill="white">
<path fill-rule="evenodd" clip-rule="evenodd" d="M10.5428 0.0287462C8.13778 0.196395 6.18497 0.654787 4.53671 1.43865C2.83286 2.24891 1.89705 3.15772 1.24024 4.64004C-0.391292 8.32207 -0.417345 15.4898 1.18712 19.2389C1.9331 20.9822 3.13314 22.0409 5.33715 22.9004C9.06197 24.3528 14.8636 24.3668 18.5731 22.9323C20.7197 22.1021 21.9179 21.1179 22.6446 19.5878C24.1785 16.3586 24.453 10.2053 23.2498 6.02252C22.8414 4.60279 22.3301 3.63392 21.5985 2.89332C20.1674 1.44471 17.5955 0.453654 14.3835 0.113076C13.3918 0.00790247 11.4528 -0.0346276 10.5428 0.0287462Z"/>
</mask>
<path fill-rule="evenodd" clip-rule="evenodd" d="M10.5428 0.0287462C8.13778 0.196395 6.18497 0.654787 4.53671 1.43865C2.83286 2.24891 1.89705 3.15772 1.24024 4.64004C-0.391292 8.32207 -0.417345 15.4898 1.18712 19.2389C1.9331 20.9822 3.13314 22.0409 5.33715 22.9004C9.06197 24.3528 14.8636 24.3668 18.5731 22.9323C20.7197 22.1021 21.9179 21.1179 22.6446 19.5878C24.1785 16.3586 24.453 10.2053 23.2498 6.02252C22.8414 4.60279 22.3301 3.63392 21.5985 2.89332C20.1674 1.44471 17.5955 0.453654 14.3835 0.113076C13.3918 0.00790247 11.4528 -0.0346276 10.5428 0.0287462Z" stroke="url(#paint0_linear_972_29019)" stroke-width="2.4" mask="url(#path-1-inside-1_972_29019)"/>
<defs>
<linearGradient id="paint0_linear_972_29019" x1="1.78814e-07" y1="23.999" x2="26.314" y2="21.1154" gradientUnits="userSpaceOnUse">
<stop stop-color="#F8954A"/>
<stop offset="1" stop-color="#F8954A"/>
</linearGradient>
</defs>
</svg>
