<svg width="24" height="24" viewBox="0 0 24 24" fill="none" xmlns="http://www.w3.org/2000/svg">
<g id="Search">
<path id="Vector" d="M20 20L16.2223 16.2156L20 20ZM18.3158 11.1579C18.3158 13.0563 17.5617 14.8769 16.2193 16.2193C14.8769 17.5617 13.0563 18.3158 11.1579 18.3158C9.2595 18.3158 7.43886 17.5617 6.0965 16.2193C4.75413 14.8769 4 13.0563 4 11.1579C4 9.2595 4.75413 7.43886 6.0965 6.0965C7.43886 4.75413 9.2595 4 11.1579 4C13.0563 4 14.8769 4.75413 16.2193 6.0965C17.5617 7.43886 18.3158 9.2595 18.3158 11.1579V11.1579Z" stroke="url(#paint0_linear_972_14431)" stroke-width="1.5" stroke-linecap="round"/>
</g>
<defs>
<linearGradient id="paint0_linear_972_14431" x1="4" y1="20" x2="21.5427" y2="18.0776" gradientUnits="userSpaceOnUse">
<stop stop-color="#7260ED"/>
<stop offset="1" stop-color="#AA7CEE"/>
</linearGradient>
</defs>
</svg>
